# xmcd
#
# Track frame offsets:
#	150
#	22311
#	45052
#	62776
#	83855
#	101085
#	122506
#	142331
#	161604
#	181008
#	202058
#	220241
#	238937
#	257282
#	274359
#	292911
#
# Disc length: 4185 seconds
#
# Revision: 0
# Processed by: cddbd v1.4PL0 Copyright (c) Steve Scherf et al.
# Submitted via: dBpowerAMP V4.0
#
DISCID=ed105710
DTITLE=조성모 - 베스트 3CD
DYEAR=1900
DGENRE=Ballad
TTITLE0=Ace of sorrow (슬픈운명)
TTITLE1=바다
TTITLE2=늘 지금처럼
TTITLE3=혼자가 아니죠
TTITLE4=마지막까지
TTITLE5=The Way
TTITLE6=For Your Soul
TTITLE7=Love song
TTITLE8=한 여름밤의 꿈
TTITLE9=춘천가는 기차
TTITLE10=미소를 띄우며 나를 보낸 그 모습처럼
TTITLE11=진
TTITLE12=비창
TTITLE13=세월이 가면
TTITLE14=단심
TTITLE15=청
EXTD=조성모 베스트앨범 3CD
EXTT0=
EXTT1=
EXTT2=
EXTT3=
EXTT4=
EXTT5=
EXTT6=
EXTT7=
EXTT8=
EXTT9=
EXTT10=
EXTT11=
EXTT12=
EXTT13=
EXTT14=
EXTT15=
PLAYORDER=
